<?xml version="1.0" encoding="UTF-8" standalone="no"?>
<!-- Created with Inkscape (http://www.inkscape.org/) -->

<svg
   version="1.1"
   id="svg1"
   width="512"
   height="512"
   viewBox="0 0 512 512"
   xmlns="http://www.w3.org/2000/svg"
   xmlns:svg="http://www.w3.org/2000/svg">
  <defs
     id="defs1" />
  <g
     id="g1">
    <path
       style="fill:#000000"
       d="m 7.2841342,507.27318 c -1.2187262,-0.22183 -3.3562262,-1.75858 -4.75,-3.41498 L 0,500.84655 0.00417324,475.17327 0.00834647,449.5 8.4958286,434.64397 16.983311,419.78794 13.025002,415.29106 C 7.6630112,409.19952 4.7694945,401.29551 4.6816003,392.5 c -0.038473,-3.85 0.5228452,-8.8 1.2473746,-11 2.3978273,-7.28089 72.2177591,-127.37916 76.8506871,-132.19198 2.353814,-2.4452 6.853814,-5.65232 10,-7.12692 5.1421,-2.41008 6.860159,-2.68158 16.996258,-2.68586 l 11.27592,-0.005 5.97408,-10.20646 C 130.31166,223.67046 133,218.7036 133,218.24655 c 0,-0.45705 -2.9351,-2.54796 -6.52246,-4.64647 -3.58735,-2.09852 -6.96235,-4.63743 -7.5,-5.64204 -1.84212,-3.44205 -1.00039,-8.25037 2.58669,-14.77628 2.79055,-5.07677 3.27896,-6.67412 2.25,-7.35869 -4.0475,-2.69279 -20.93853,-12.01969 -21.18995,-11.70068 -0.16369,0.20769 -1.70685,2.88246 -3.429252,5.94394 -4.239977,7.53635 -6.484189,9.38822 -11.377238,9.38822 -3.305002,0 -4.55939,-0.60093 -7.032769,-3.36912 -2.503173,-2.80154 -2.923976,-3.97697 -2.497848,-6.97728 0.554725,-3.90574 23.611147,-44.55909 26.502597,-46.72969 4.90317,-3.68079 11.84413,-1.92089 14.77468,3.74617 1.97048,3.81049 1.38854,6.41281 -3.17544,14.20006 -1.90992,3.25878 -3.34128,6.03523 -3.1808,6.16987 2.81765,2.36389 22.24544,12.64448 22.49278,11.90247 0.18881,-0.56642 2.24582,-3.92497 4.57115,-7.46345 3.45356,-5.25532 4.89479,-6.59839 7.86945,-7.33346 3.24745,-0.80249 4.44146,-0.4609 11.03159,3.15598 l 7.38999,4.05586 6.18282,-10.68479 c 3.40056,-5.87663 7.43634,-11.85795 8.96842,-13.29182 6.32374,-5.91838 15.5599,-8.1504 23.00429,-5.55925 4.02382,1.40057 4.28186,1.37036 5.58629,-0.65385 0.75217,-1.16724 17.02821,-29.26497 36.16897,-62.439403 21.69614,-37.603373 35.73679,-60.9300568 37.28539,-61.9447389 6.62791,-4.3427732 16.00486,1.0755614 14.97613,8.6537389 -0.26939,1.984484 -2.1693,6.467858 -4.22202,9.963054 -3.11139,5.297788 -3.5061,6.563399 -2.37284,7.608301 C 292.88828,33.152573 307,41.46103 323.5,50.92644 c 16.5,9.465411 31.2375,18.536275 32.75,20.157475 3.82383,4.098645 3.75771,9.062217 -0.17308,12.993008 -5.38515,5.38515 -6.52391,4.958854 -42.79165,-16.019004 l -32.74817,-18.94208 -6.2561,10.69208 c -3.44085,5.880645 -6.2617,10.965088 -6.26855,11.298764 -0.007,0.333675 15.62505,9.627292 34.73755,20.652481 33.22613,19.166736 65.4075,37.750776 137.62781,79.477036 18.08279,10.44758 34.42028,19.42149 36.30551,19.94203 C 483.86074,193.16001 492,186.28825 492,178.24675 c 0,-6.4479 -2.82515,-8.59408 -38.49085,-29.24036 -31.81346,-18.41628 -34.08162,-19.9152 -35.40768,-23.39931 -1.25699,-3.30264 -1.22867,-4.11712 0.25104,-7.22011 2.07688,-4.35527 7.53864,-6.98828 11.50762,-5.54761 5.69593,2.06752 66.91523,38.1813 71.33052,42.07848 2.68337,2.36848 5.89287,6.58842 7.5,9.86119 2.36862,4.82346 2.80923,6.97602 2.80855,13.72097 -6.5e-4,6.5618 -0.47669,9.01536 -2.64796,13.64796 -8.39541,17.91236 -28.48925,24.10951 -46.90069,14.46467 l -6.83298,-3.57946 -0.70102,4.73341 c -1.17992,7.96696 -2.60155,10.85238 -21.84196,44.33154 -16.44541,28.61574 -19.36669,33.10923 -25.00037,38.45536 l -6.37907,6.05348 4.44541,2.35828 c 7.02624,3.72741 13.0113,9.62562 16.05329,15.82032 2.40659,4.90077 2.80615,6.92475 2.80615,14.21444 0,7.26375 -0.40294,9.32051 -2.77047,14.14151 -7.00871,14.27185 -23.19498,21.77549 -37.80142,17.52401 C 380.58841,359.69343 350.41407,342.87269 305.5,316.9456 265.35,293.76862 223.13048,269.40639 211.67885,262.80731 200.22721,256.20823 190.62326,251.04341 190.33673,251.32994 188.95824,252.70842 178,272.46156 178,273.56791 c 0,0.69598 0.37843,1.41542 0.84095,1.59876 0.46252,0.18333 2.42455,2.4228 4.36006,4.9766 6.63919,8.76002 8.60608,23.93089 4.40324,33.96269 -0.8309,1.98328 -17.29565,31.00828 -36.58834,64.5 -38.77835,67.31845 -39.94974,68.9807 -51.712175,73.38159 -5.975403,2.23568 -14.47341,2.87419 -21.803735,1.63826 l -4,-0.67443 -8.085483,14.21693 -8.085483,14.21694 -21.461822,12.64809 C 14.455553,506.65188 11.469539,508.03501 7.2841342,507.27318 Z M 36.982701,470.31766 c 4.908309,-2.94055 6.192856,-4.49928 12.261303,-14.87837 3.728232,-6.37653 6.542625,-11.97551 6.254208,-12.44218 -0.288417,-0.46667 -5.224477,-3.54534 -10.969021,-6.8415 l -10.444625,-5.993 -7.038429,12.16869 -7.038429,12.1687 -0.0039,12.82339 -0.0039,12.82339 5.75,-3.27222 c 3.1625,-1.79972 8.217215,-4.75033 11.232701,-6.5569 z m 56.985105,-37.80101 c 1.395303,-0.72154 3.269098,-2.14546 4.163989,-3.16427 1.460587,-1.66284 66.201205,-113.27597 70.216005,-121.05272 2.21879,-4.29785 2.09824,-11.05591 -0.2664,-14.93383 -2.67873,-4.39302 -5.56305,-6.32914 -31.72279,-21.29416 -19.99098,-11.4361 -23.73477,-13.23751 -27.5,-13.23226 -5.58688,0.008 -8.70623,1.25731 -12.007769,4.80995 -3.247796,3.49481 -69.634002,118.22204 -71.736484,123.97347 -1.72688,4.72396 -0.659027,10.14372 2.886774,14.65148 1.98533,2.52394 48.997472,30.24996 53.929879,31.80584 3.060044,0.96527 8.517548,0.25637 12.036796,-1.5635 z m 304.126074,-92.0652 c 3.80949,-1.96996 6.89757,-7.00364 6.90238,-11.25111 0.007,-6.20064 -2.31708,-8.72525 -14.7548,-16.02772 C 355.85829,292.98547 156.29503,178.11349 155.1175,177.83131 c -0.85774,-0.20556 -3.77971,3.73851 -7.69811,10.39089 l -6.31561,10.72221 9.19811,5.39361 C 174.80846,218.70824 386.6916,340.76694 388,341.26785 c 2.81915,1.07928 7.09714,0.73327 10.09388,-0.8164 z m -8.48677,-61.12516 c 1.70891,-0.78021 4.24677,-2.6353 5.63968,-4.12243 1.39291,-1.48712 10.6641,-16.82942 20.60263,-34.094 19.00368,-33.01195 20.30116,-36.12322 18.24647,-43.75373 -1.70519,-6.3326 -6.56179,-10.77395 -20.07137,-18.35519 C 402.81712,172.71162 400.99417,172 396.09024,172 c -6.42463,0 -13.16021,2.88306 -15.97026,6.83583 -2.03826,2.86712 -33.68479,57.42602 -36.58365,63.07053 -1.2861,2.50423 -1.6444,5.05554 -1.3529,9.63343 0.61362,9.63674 3.08521,12.52768 18.28229,21.38427 15.8309,9.22596 20.64155,10.28284 29.14139,6.40223 z M 166.9655,251.62309 c 4.89097,-8.52292 5.94887,-11.066 4.88817,-11.75062 -4.3618,-2.81524 -21.03682,-12.00876 -21.25538,-11.71883 -0.1436,0.1905 -3.01398,5.18854 -6.37862,11.10677 l -6.11753,10.76041 2.19893,1.38544 c 4.14352,2.61062 20.10908,11.51696 20.2659,11.30527 0.0862,-0.11634 2.96552,-5.10614 6.39853,-11.08844 z m 154.1439,-15.16917 c 3.46735,-2.46769 6.85848,-7.64513 20.60176,-31.45392 21.40456,-37.08115 21.57455,-37.42397 21.57455,-43.50849 0,-5.26679 -2.59704,-11.67978 -5.9293,-14.64148 -3.8793,-3.4479 -26.38545,-15.59306 -29.97484,-16.17554 -6.12932,-0.99465 -12.24962,1.12631 -16.82541,5.83077 -2.43229,2.50068 -11.22649,16.69121 -21.96649,35.44562 -17.2379,30.10121 -17.9132,31.48732 -17.98701,36.91997 -0.0605,4.45173 0.50809,6.64242 2.69054,10.36649 2.3662,4.03761 4.49801,5.74256 14.70989,11.76448 15.27256,9.0062 15.33783,9.03116 22.72634,8.69198 5.0201,-0.23045 7.03517,-0.85941 10.37997,-3.23988 z M 251.34606,201.7468 c 0.77048,-5.93985 1.19479,-6.77308 22.02274,-43.2468 14.71523,-25.76917 18.0623,-30.93238 23.73348,-36.61133 l 6.60229,-6.61133 -22.93933,-13.21829 c -12.61664,-7.270058 -23.08656,-13.06996 -23.2665,-12.88867 -0.65244,0.65734 -29.61473,50.96832 -30.16262,52.3961 -0.33248,0.86641 0.52071,2.31966 2.08357,3.54901 1.45563,1.145 3.80313,4.36412 5.21667,7.1536 2.17114,4.28454 2.51179,6.1033 2.19457,11.71716 -0.33742,5.9715 -1.01659,7.79018 -6.69772,17.93505 -4.09781,7.31753 -5.97988,11.63203 -5.34923,12.26268 0.53514,0.53514 6.31034,4.06434 12.83377,7.84266 8.05678,4.66643 12.06138,6.4854 12.48626,5.67152 0.34402,-0.65899 0.90294,-3.3371 1.24205,-5.95136 z M 211.76044,174.03593 C 214.6422,169.1057 217,163.98139 217,162.64859 c 0,-2.00567 -1.54965,-3.30436 -8.99212,-7.53593 C 203.06221,152.3007 198.34285,150 197.52042,150 c -1.57047,0 -3.75385,3.12807 -9.908,14.19495 l -3.72298,6.69495 10.30528,6.04517 c 5.6679,3.32485 10.75998,6.04962 11.31572,6.05505 0.55575,0.005 3.36825,-4.02395 6.25,-8.95419 z M 384.5,109.05464 c -3.7048,-1.51634 -5.95455,-5.00621 -5.95455,-9.23685 0,-3.27406 0.60339,-4.561588 3.24305,-6.920126 4.43935,-3.966559 9.30576,-3.957253 13.28842,0.02541 7.54998,7.549986 -0.72147,20.165326 -10.57692,16.131566 z"
       id="path1" />
  </g>
</svg>
