<?xml version="1.0" encoding="UTF-8" standalone="no"?>
<!-- Created with Inkscape (http://www.inkscape.org/) -->

<svg
   version="1.1"
   id="svg1"
   width="1237.6858"
   height="1107.7574"
   viewBox="0 0 1237.6858 1107.7574"
   xmlns="http://www.w3.org/2000/svg"
   xmlns:svg="http://www.w3.org/2000/svg">
  <defs
     id="defs1" />
  <g
     id="g1"
     transform="translate(-22.507601,-82.194466)">
    <path
       style="fill:#ffffff"
       d="m 624.70915,1171.3994 c -21.7129,-41.8402 -60.06452,-111.1975 -62.58245,-113.1776 -1.45237,-1.1422 -13.49847,-22.6355 -26.76912,-47.763 -13.27064,-25.12759 -31.10372,-56.90039 -39.62907,-70.60629 -8.52535,-13.7059 -27.43461,-47.7416 -42.02056,-75.6349 -14.58596,-27.8933 -30.66505,-55.8665 -35.73131,-62.1628 -5.06626,-6.2963 -9.21138,-12.7664 -9.21138,-14.3781 0,-4.4167 -62.35257,-117.3153 -66.15995,-119.7924 -1.81763,-1.1826 -9.04437,-13.7727 -16.05944,-27.9782 -18.05602,-36.5633 -41.38851,-78.6762 -57.02479,-102.9244 -7.36514,-11.4216 -21.9785,-37.5875 -32.47414,-58.1463 -22.82774,-44.71507 -32.4534,-61.25858 -38.02374,-65.35104 -2.76888,-2.03426 -2.76888,-3.09378 0,-3.17858 2.37548,-0.0727 2.17517,-1.43334 -0.46797,-3.17858 -2.5417,-1.67826 -15.48947,-23.61026 -28.77283,-48.73777 C 156.49905,333.26193 139.60501,303.14147 132.2401,291.45509 124.87519,279.76871 106.23167,246.12691 90.810059,216.69555 75.38844,187.26418 58.649182,157.57701 53.611702,150.72405 41.26698,133.93037 22.507601,96.439739 22.507601,88.562509 c 0,-5.69335 65.565761,-6.36804 618.842909,-6.36804 529.28259,0 618.84289,0.84614 618.84289,5.84667 0,7.42875 -20.0928,47.574741 -29.2937,58.529611 -3.8371,4.56863 -18.3035,29.97615 -32.1475,56.46114 -13.844,26.485 -35.2031,64.79926 -47.4647,85.14281 -12.2616,20.34355 -31.3108,54.74367 -42.3316,76.4447 -11.0207,21.70104 -21.3402,40.39092 -22.9322,41.53308 -3.567,2.55924 -21.5859,34.60927 -50.2033,89.29613 -11.9538,22.8432 -23.0995,42.4676 -24.7682,43.6097 -3.1498,2.1559 -22.96686,37.793 -50.7294,91.2269 -8.85975,17.0521 -18.66632,33.873 -21.79238,37.3797 -3.12606,3.5068 -13.06845,20.3933 -22.09419,37.5257 -37.38711,70.9671 -47.27705,88.8892 -55.16369,99.9649 -4.5609,6.4052 -18.46333,31.2145 -30.89428,55.1317 -12.43096,23.9172 -32.62391,60.0141 -44.87323,80.2154 -12.24933,20.2013 -30.25007,52.6161 -40.00165,72.03279 -9.75158,19.4167 -20.2015,38.1066 -23.22204,41.5331 -6.21839,7.0541 -31.02885,51.9686 -56.78291,102.7944 -20.31665,40.095 -26.40059,42.2632 -40.78928,14.5365 z M 603.52641,938.64061 c -14.05899,-26.7453 -29.69909,-54.2347 -34.75577,-61.0877 -5.05668,-6.853 -9.95198,-14.3289 -10.87845,-16.6132 -5.38491,-13.2771 -63.51216,-119.3879 -67.73117,-123.6426 -2.78688,-2.8105 -12.15554,-19.043 -20.81923,-36.0722 -18.884,-37.1181 -42.23796,-72.8508 -66.38237,-101.5684 -9.77625,-11.628 -23.62725,-29.8076 -30.78001,-40.3991 -7.15277,-10.5916 -22.40595,-29.5435 -33.89598,-42.1155 -11.49002,-12.5719 -20.89095,-24.3199 -20.89095,-26.1067 0,-3.6582 -37.9904,-49.28238 -51.65907,-62.03954 -4.89507,-4.56864 -13.86008,-15.05411 -19.92223,-23.30105 -10.62474,-14.45385 -58.09879,-57.00323 -51.4465,-46.10973 1.79647,2.94181 9.65376,15.04762 17.46066,26.90179 7.8069,11.85417 14.19436,22.93311 14.19436,24.61988 0,4.93849 47.10827,88.19695 51.79783,91.54675 2.74506,1.9608 2.78742,3.0968 0.11852,3.1786 -2.34914,0.072 -2.13218,1.4526 0.49945,3.1785 2.55902,1.6783 17.18385,26.3221 32.49962,54.764 15.31577,28.442 31.17483,56.4768 35.24236,62.2997 4.06753,5.8228 19.20592,33.0148 33.64087,60.4266 14.43495,27.4119 32.09436,59.1847 39.24313,70.6063 13.84428,22.119 47.23665,82.6193 63.61316,115.2543 5.44488,10.8505 11.7119,19.7282 13.92671,19.7282 2.2148,0 2.95163,1.7398 1.6374,3.8663 -1.31424,2.1265 -0.60824,4.9672 1.56889,6.3127 2.17712,1.3456 18.16968,29.4517 35.53902,62.4581 17.36934,33.0065 33.95836,62.40579 36.8645,65.33189 2.90613,2.926 16.38063,26.7051 29.94332,52.8422 l 24.65945,47.5222 1.13715,-71.5772 1.13715,-71.57729 z m 25.36418,-35.767 v -34.9023 l -20.54804,-1.4392 -20.54804,-1.4391 15.15215,26.9965 c 8.33368,14.848 17.11305,31.1871 19.50971,36.309 6.2863,13.4345 6.43422,12.8477 6.43422,-25.5249 z m 51.14397,-12.8608 c 11.45173,-20.5589 29.86048,-52.5304 40.90834,-71.0479 11.04785,-18.5175 20.087,-34.6412 20.087,-35.8304 0,-2.9825 45.59998,-84.1393 60.03724,-106.8515 11.5088,-18.1053 11.55014,-18.3774 1.82716,-12.0254 -22.03559,14.3957 -56.56736,32.0198 -72.24767,36.8733 -9.13727,2.8283 -18.87964,6.9386 -21.6497,9.1341 -2.77007,2.1955 -16.32023,5.015 -30.11149,6.2655 l -25.07501,2.2737 v 61.484 61.484 l 17.65156,1.2771 c 15.71889,1.1373 17.65156,2.414 17.65156,11.6604 0,9.2464 -1.93267,10.5231 -17.65156,11.6604 l -17.65156,1.2771 0.3279,36.1027 c 0.18034,19.8564 1.39597,33.2991 2.70139,29.8727 1.30543,-3.4265 11.7431,-23.0509 23.19484,-43.6098 z m 122.55857,-23.0638 c 30.7429,-58.9574 51.92399,-97.4122 57.06997,-103.6121 2.84403,-3.4264 15.92646,-26.7888 29.07207,-51.9163 13.14561,-25.1275 34.07593,-62.4645 46.51181,-82.971 12.43589,-20.5066 30.08835,-52.157 39.2277,-70.3342 9.13934,-18.1773 21.51453,-40.648 27.50052,-49.9349 13.3379,-20.6931 15.3054,-24.1771 40.0271,-70.87822 29.4192,-55.57521 32.8656,-61.60975 38.8181,-67.96938 2.997,-3.20204 9.7379,-14.4502 14.9797,-24.99591 19.1838,-38.59468 49.8399,-94.25799 58.5954,-106.39348 11.4468,-15.86589 61.6557,-111.45384 57.2122,-108.9208 -1.8319,1.04424 -19.217,10.83322 -38.6338,21.75329 -79.5582,44.74401 -81.9596,47.22254 -124.8823,128.89598 -11.9486,22.73572 -29.6259,54.4206 -39.2829,70.41084 -9.65709,15.99023 -28.33387,49.63202 -41.50407,74.75954 -13.17019,25.12754 -25.2518,46.62084 -26.84802,47.76304 -7.12277,5.0966 -47.15518,89.019 -60.42661,126.6759 -8.05062,22.8432 -17.16902,46.2055 -20.26311,51.9163 -12.60456,23.2644 -77.2039,226.9359 -77.2039,243.4117 0,9.8806 1.62446,7.6373 20.03014,-27.6603 z m -192.52627,-24.6992 h 18.82373 v -61.7228 -61.7228 l -25.07501,-2.2737 c -13.79126,-1.2505 -27.34143,-3.9918 -30.11149,-6.0916 -2.77006,-2.0999 -14.38142,-7.2721 -25.80301,-11.4939 -24.18097,-8.938 -58.00901,-28.0762 -72.25465,-40.878 -10.18155,-9.1496 3.88691,20.5571 18.38292,38.817 2.72018,3.4265 17.68945,30.5268 33.26504,60.223 40.82406,77.8344 57.20353,102.8061 60.9676,92.9493 2.31152,-6.053 7.20934,-7.8065 21.80487,-7.8065 z m 95.82565,-155.8389 C 859.99126,647.06941 933.58589,465.38681 850.97448,328.24805 724.44381,118.20123 399.66939,206.99928 398.9473,451.83891 c -0.47056,159.5526 150.09404,274.6163 306.94521,234.572 z m -72.84862,-7.358 c 0,-3.2891 -22.07326,-26.705 -49.05169,-52.0353 -36.62359,-34.3861 -52.13608,-52.1528 -61.22526,-70.1221 -6.69546,-13.2369 -12.64557,-24.8344 -13.22247,-25.7722 -0.57689,-0.9378 -4.47825,1.3984 -8.66968,5.1916 -13.81126,12.499 -16.25405,7.8651 -21.49317,-40.7723 -6.60867,-61.35156 -0.533,-106.00336 14.42365,-106.00336 3.48302,0 6.36522,1.40174 6.40488,3.11498 0.39384,17.0114 14.72305,63.94758 27.54866,90.23728 11.00764,22.5632 14.34465,33.1795 10.80063,34.3608 -3.50985,1.17 -3.91479,3.9775 -1.28297,8.8951 4.1739,7.799 66.0367,56.5555 68.45876,53.955 1.2732,-1.367 13.20683,-133.843 16.13732,-179.14156 l 1.00758,-15.57491 h -29.88155 c -35.26844,0 -43.02085,-2.32536 -43.02085,-12.90428 0,-7.13175 3.47308,-7.86226 37.37977,-7.86226 h 37.37978 v -26.9965 c 0,-16.0113 -1.76685,-26.9965 -4.3421,-26.9965 -34.86976,0 -31.23826,-68.32829 4.41642,-83.09694 46.66867,-19.33079 82.49348,40.1826 45.41866,75.45103 -16.13127,15.34531 -16.75715,16.90443 -15.57491,38.79881 l 1.23174,22.81104 38.4181,0.0145 c 28.74622,0.0109 38.4181,1.37382 38.4181,5.41383 0,11.59756 -10.3921,15.36724 -42.36374,15.36724 h -32.39581 l 0.0208,11.4216 c 0.0297,16.25307 11.76741,149.5319 14.83294,168.4237 2.54947,15.7115 2.61284,15.7563 12.81817,9.0696 29.97162,-19.6382 67.8019,-55.7897 58.5092,-55.9128 -9.71752,-0.1287 -9.72232,-0.1091 9.55567,-39.0137 9.78541,-19.7478 18.82633,-45.6419 21.61013,-61.89363 8.89066,-51.90331 28.01884,-27.02604 28.01884,36.44003 0,25.8899 -7.21742,85.149 -10.83496,88.9612 -0.91175,0.9608 -6.04044,-2.3705 -11.39709,-7.4028 l -9.73936,-9.1496 -11.07823,24.6855 c -8.98675,20.0252 -20.67083,33.8499 -61.88882,73.2273 -27.94583,26.698 -50.8106,50.6679 -50.8106,53.2665 0,2.5987 -3.27073,5.3547 -7.26829,6.1246 -4.20503,0.8098 -7.26829,-1.1207 -7.26829,-4.5805 z m 27.58933,-395.74488 c 15.06833,-22.99717 -10.50024,-48.56574 -33.49742,-33.49741 -12.44088,8.15157 -14.56356,27.29088 -4.17851,37.67592 10.38504,10.38505 29.52435,8.26237 37.67593,-4.17851 z M 378.16135,448.72301 c 0.55003,-44.98505 15.37208,-108.40652 27.01741,-115.60373 2.50055,-1.54542 -4.26229,-7.85472 -15.37784,-14.34655 l -19.84133,-11.58796 -7.01677,13.14241 c -8.38604,15.70707 -28.93711,21.26353 -28.93711,7.82382 0,-4.37084 3.73798,-12.25691 8.30662,-17.5246 11.16834,-12.87721 11.07828,-13.08047 -10.98069,-24.78273 -10.60801,-5.62753 -21.72886,-12.67344 -24.71299,-15.65758 -6.64426,-6.64426 -73.87441,-46.58152 -75.56654,-44.88939 -2.15492,2.15493 40.75878,78.67127 45.98467,81.99195 2.77892,1.7658 3.36117,3.23917 1.29389,3.27415 -2.06728,0.035 -0.93913,3.33433 2.50701,7.33189 3.44614,3.99756 9.01172,12.87525 12.36797,19.72821 19.10993,39.01964 56.05249,105.42591 64.11645,115.25281 5.15424,6.2811 11.73701,17.9623 14.62837,25.9582 2.89136,7.9959 5.34881,14.5376 5.461,14.5371 0.11219,-4e-4 0.44963,-20.0921 0.74988,-44.648 z m 547.78886,3.1159 c 5.17505,-6.0965 10.89388,-16.34035 52.73584,-94.46342 11.30986,-21.11655 22.30205,-39.46834 24.42715,-40.78174 2.1252,-1.31341 2.7886,-4.12786 1.4744,-6.25433 -1.3142,-2.12648 -0.6429,-3.86633 1.4918,-3.86633 2.1348,0 10.8335,-13.55016 19.3306,-30.11148 8.497,-16.56131 19.1483,-36.16418 23.6694,-43.56193 l 8.2203,-13.45046 -36.6506,21.41791 c -20.1579,11.77984 -41.54208,25.44615 -47.52048,30.36957 -5.97839,4.92342 -16.66593,11.3525 -23.75008,14.28685 l -12.88028,5.33519 10.25183,13.44085 c 12.9921,17.03351 13.33362,27.23106 0.90689,27.07901 -5.74466,-0.0703 -13.34525,-5.56126 -19.72821,-14.25247 l -10.38327,-14.13814 -18.68989,10.70696 c -10.27944,5.88883 -19.0714,10.97072 -19.53769,11.29309 -0.4663,0.32237 4.86598,17.16295 11.8495,37.42351 9.51204,27.5963 13.27002,47.23091 14.98029,78.26865 2.19144,39.76981 2.52824,40.95121 8.39854,29.45991 3.36356,-6.5842 8.49534,-14.7748 11.40396,-18.2012 z M 437.83841,285.13358 c 22.8355,-30.73927 40.65467,-45.2702 81.31959,-66.31336 l 31.26672,-16.17982 -157.01087,0.0636 c -106.13648,0.043 -154.99226,1.41012 -150.78092,4.2193 3.42648,2.28563 28.09603,16.43625 54.82123,31.44581 26.72519,15.00956 50.78365,29.93177 53.46323,33.16047 7.57066,9.12209 13.65693,6.86492 20.82232,-7.72221 14.11817,-28.74142 30.75254,-17.56123 18.28114,12.28701 -3.45646,8.27249 -5.7927,15.34234 -5.19163,15.71079 0.60106,0.36846 7.6343,4.72248 15.62942,9.6756 18.61104,11.5299 15.7367,12.78692 37.37977,-16.34719 z m 451.17999,10.85581 17.8891,-10.48371 -8.17925,-14.56247 c -10.86738,-19.34845 -10.43768,-26.76973 1.54999,-26.76973 6.85913,0 12.03864,4.28827 17.55771,14.53657 7.74761,14.38643 12.25647,17.74174 14.93834,11.1165 0.76144,-1.88105 25.68129,-17.07579 55.37742,-33.76611 29.69619,-16.69031 54.77179,-31.03767 55.72359,-31.88303 0.9518,-0.84535 -68.20079,-1.46236 -153.67241,-1.37113 l -155.40295,0.16589 23.88661,12.09801 c 45.20186,22.89369 61.38586,35.77407 88.17079,70.17259 19.16092,24.60738 18.70692,24.49166 42.16106,10.74662 z m -250.6512,-124.683 c 132.13567,-19.5257 241.19845,-39.7168 258.41176,-47.8405 4.56864,-2.15614 18.58605,-7.51523 31.14981,-11.9091 22.81787,-7.97999 22.35753,-7.98917 -415.33081,-8.27679 l -438.174008,-0.28794 13.813287,8.42163 c 7.59731,4.6319 16.007761,10.36362 18.689891,12.73717 2.68213,2.37354 25.43547,16.29088 50.56299,30.92741 l 45.68638,26.61188 181.8389,0.0919 c 173.55973,0.0877 185.0949,-0.38928 253.3518,-10.47561 z"
       id="path16" />
  </g>
</svg>
